<?xml version="1.0" encoding="UTF-8" standalone="no"?>
<svg width="410px" height="504px" viewBox="0 0 410 504" version="1.1" xmlns="http://www.w3.org/2000/svg" xmlns:xlink="http://www.w3.org/1999/xlink">
    <!-- Generator: Sketch 39 (31667) - http://www.bohemiancoding.com/sketch -->
    <title>agenda</title>
    <desc>Created with Sketch.</desc>
    <defs></defs>
    <g id="Page-1" stroke="none" stroke-width="1" fill="none" fill-rule="evenodd">
        <g id="agenda">
            <path d="M20,464.8 C20,481.6 32,498 48.8,498 L372,498 C388.8,498 404,481.6 404,464.8 L404,29.2 C404,12.4 388.8,2 372,2 L48.8,2 C32,2 20,12.8 20,29.2 L20,464.8 L20,464.8 Z" id="Shape" fill="#EFDC81"></path>
            <g id="Group" transform="translate(32.000000, 23.000000)" fill="#F0C960">
                <path d="M18,17 C18,18.2 17.2,19 16,19 L2,19 C2.8,23 8.8,29.4 16,29.4 C23.6,29.4 30,22.2 30,14.6 C30,7 23.6,0.2 16,0.2 C14,0.2 11.6,0.6 9.6,1.4 C8.8,1.8 8.4,3 7.6,2.6 L1.2,15 L16,15 C16.8,15 18,15.8 18,17 L18,17 Z" id="Shape"></path>
                <path d="M18,69 C18,70.2 17.2,71 16,71 L2,71 C2.8,75 8.8,81.4 16,81.4 C23.6,81.4 30,74.2 30,66.6 C30,59 23.6,52.2 16,52.2 C14,52.2 11.6,52.6 9.6,53.4 C8.8,53.8 8.4,55.4 7.6,55 L1.2,67 L16,67 C16.8,67 18,67.8 18,69 L18,69 Z" id="Shape"></path>
                <path d="M18,121 C18,122.2 17.2,123 16,123 L2,123 C2.8,127 8.8,133.4 16,133.4 C23.6,133.4 30,126.2 30,118.6 C30,111 23.6,104.2 16,104.2 C14,104.2 11.6,104.6 9.6,105.4 C8.8,105.8 8.4,107 7.6,106.6 L0.8,118.6 L16,118.6 C16.8,119 18,119.8 18,121 L18,121 Z" id="Shape"></path>
                <path d="M18,173 C18,174.2 17.2,175 16,175 L2,175 C2.8,179 8.8,185.4 16,185.4 C23.6,185.4 30,178.2 30,170.6 C30,163 23.6,156.2 16,156.2 C14,156.2 11.6,156.6 9.6,157.4 C8.8,157.8 8.4,159 7.6,158.6 L1.2,171 L16,171 C16.8,171 18,171.8 18,173 L18,173 Z" id="Shape"></path>
                <path d="M18,225 C18,226.2 17.2,227 16,227 L2,227 C2.8,231 8.8,237.8 16,237.8 C23.6,237.8 30,230.6 30,223 C30,215.4 23.6,208.6 16,208.6 C14,208.6 11.6,209 9.6,209.8 C8.8,210.2 8.4,211.4 7.6,211 L0.8,223 L16,223 C16.8,223 18,223.8 18,225 L18,225 Z" id="Shape"></path>
                <path d="M18,277 C18,278.2 17.2,279 16,279 L2,279 C2.8,283 8.8,289.4 16,289.4 C23.6,289.4 30,282.2 30,274.6 C30,267 23.6,260.2 16,260.2 C14,260.2 11.6,260.6 9.6,261.4 C8.8,261.8 8.4,263 7.6,262.6 L0.8,274.6 L16,274.6 C16.8,275 18,275.8 18,277 L18,277 Z" id="Shape"></path>
                <path d="M18,329 C18,330.2 17.2,331 16,331 L2,331 C2.8,335 8.8,341.8 16,341.8 C23.6,341.8 30,334.6 30,327 C30,319.4 23.6,312.6 16,312.6 C14,312.6 11.6,313 9.6,313.8 C8.8,314.2 8.4,315.4 7.6,315 L0.8,327 L16,327 C16.8,327 18,327.8 18,329 L18,329 Z" id="Shape"></path>
                <path d="M18,381 C18,382.2 17.2,383 16,383 L2,383 C2.8,387 8.8,393.4 16,393.4 C23.6,393.4 30,386.2 30,378.6 C30,371 23.6,364.2 16,364.2 C14,364.2 11.6,364.6 9.6,365.4 C8.8,365.8 8.4,367 7.6,366.6 L0.8,378.6 L16,378.6 C16.8,379 18,379.8 18,381 L18,381 Z" id="Shape"></path>
                <path d="M18,433 C18,434.2 17.2,435 16,435 L2,435 C2.8,439 8.8,445.4 16,445.4 C23.6,445.4 30,438.2 30,430.6 C30,423 23.6,416.2 16,416.2 C14,416.2 11.6,416.6 9.6,417.4 C8.8,417.8 8.4,419 7.6,418.6 L0.8,431 L16,431 C16.8,431 18,431.8 18,433 L18,433 Z" id="Shape"></path>
            </g>
            <path d="M374,504 L50,504 C30,504 14,488 14,468 L14,36 C14,16 30,0 50,0 L373.6,0 C393.6,0 409.6,16 409.6,36 L409.6,466.4 C410,466.8 410,467.6 410,468 C410,488 394,504 374,504 L374,504 Z M50,8 C34.4,8 22,20.4 22,36 L22,468 C22,483.6 34.4,496 50,496 L374,496 C388.8,496 401.2,484.4 402,469.6 C401.6,469.2 401.6,468.4 401.6,468 L401.6,36 C401.6,20.4 389.2,8 373.6,8 L50,8 L50,8 Z" id="Shape" fill="#000000"></path>
            <path d="M48,56.8 C36.8,56.8 28,48 28,36.8 C28,34.4 29.6,32.8 32,32.8 C34.4,32.8 36,34.4 36,36.8 C36,43.6 41.2,48.8 48,48.8 C54.8,48.8 60,43.6 60,36.8 C60,30 54.8,24.8 48,24.8 C45.6,24.8 44,25.2 42.8,26 C40.8,27.2 38.4,26.4 37.2,24.8 C36,22.8 36.8,20.4 38.4,19.2 C40.8,17.6 44,17.2 47.6,17.2 C58.8,17.2 67.6,26 67.6,37.2 C67.6,48.4 59.2,56.8 48,56.8 L48,56.8 Z" id="Shape" fill="#000000"></path>
            <path d="M48,44 L4,44 C1.6,44 0,42.4 0,40 C0,37.6 1.6,36 4,36 L48,36 C50.4,36 52,37.6 52,40 C52,42.4 50.4,44 48,44 L48,44 Z" id="Shape" fill="#000000"></path>
            <path d="M48,108.8 C36.8,108.8 28,100 28,88.8 C28,86.4 29.6,84.8 32,84.8 C34.4,84.8 36,86.4 36,88.8 C36,95.6 41.2,100.8 48,100.8 C54.8,100.8 60,95.6 60,88.8 C60,82 54.8,76.8 48,76.8 C45.6,76.8 44,77.2 42.8,78 C40.8,79.2 38.4,78.4 37.2,76.8 C36,74.8 36.8,72.4 38.4,71.2 C40.8,69.6 44,69.2 47.6,69.2 C58.8,69.2 67.6,78 67.6,89.2 C67.6,100.4 59.2,108.8 48,108.8 L48,108.8 Z" id="Shape" fill="#000000"></path>
            <path d="M48,96 L4,96 C1.6,96 0,94.4 0,92 C0,89.6 1.6,88 4,88 L48,88 C50.4,88 52,89.6 52,92 C52,94.4 50.4,96 48,96 L48,96 Z" id="Shape" fill="#000000"></path>
            <path d="M48,160.8 C36.8,160.8 28,152 28,140.8 C28,138.4 29.6,136.8 32,136.8 C34.4,136.8 36,138.4 36,140.8 C36,147.6 41.2,152.8 48,152.8 C54.8,152.8 60,147.6 60,140.8 C60,134 54.8,128.8 48,128.8 C45.6,128.8 44,129.2 42.8,130 C40.8,131.2 38.4,130.4 37.2,128.8 C36,126.8 36.8,124.4 38.4,123.2 C40.8,121.6 44,121.2 47.6,121.2 C58.8,121.2 67.6,130 67.6,141.2 C67.6,152.4 59.2,160.8 48,160.8 L48,160.8 Z" id="Shape" fill="#000000"></path>
            <path d="M48,148 L4,148 C1.6,148 0,146.4 0,144 C0,141.6 1.6,140 4,140 L48,140 C50.4,140 52,141.6 52,144 C52,146.4 50.4,148 48,148 L48,148 Z" id="Shape" fill="#000000"></path>
            <path d="M48,212.8 C36.8,212.8 28,204 28,192.8 C28,190.4 29.6,188.8 32,188.8 C34.4,188.8 36,190.4 36,192.8 C36,199.6 41.2,204.8 48,204.8 C54.8,204.8 60,199.6 60,192.8 C60,186 54.8,180.8 48,180.8 C45.6,180.8 44,181.2 42.8,182 C40.8,183.2 38.4,182.4 37.2,180.8 C36,178.8 36.8,176.4 38.4,175.2 C40.8,173.6 44,173.2 47.6,173.2 C58.8,173.2 67.6,182 67.6,193.2 C67.6,204.4 59.2,212.8 48,212.8 L48,212.8 Z" id="Shape" fill="#000000"></path>
            <path d="M48,200 L4,200 C1.6,200 0,198.4 0,196 C0,193.6 1.6,192 4,192 L48,192 C50.4,192 52,193.6 52,196 C52,198.4 50.4,200 48,200 L48,200 Z" id="Shape" fill="#000000"></path>
            <path d="M48,265.2 C36.8,265.2 28,256.4 28,245.2 C28,242.8 29.6,241.2 32,241.2 C34.4,241.2 36,242.8 36,245.2 C36,252 41.2,257.2 48,257.2 C54.8,257.2 60,252 60,245.2 C60,238.4 54.8,233.2 48,233.2 C45.6,233.2 44,233.6 42.8,234.4 C40.8,235.6 38.4,234.8 37.2,233.2 C36,231.2 36.8,228.8 38.4,227.6 C40.8,226 44,225.6 47.6,225.6 C58.8,225.6 67.6,234.4 67.6,245.6 C67.6,256.8 59.2,265.2 48,265.2 L48,265.2 Z" id="Shape" fill="#000000"></path>
            <path d="M48,252 L4,252 C1.6,252 0,250.4 0,248 C0,245.6 1.6,244 4,244 L48,244 C50.4,244 52,245.6 52,248 C52,250.4 50.4,252 48,252 L48,252 Z" id="Shape" fill="#000000"></path>
            <path d="M48,316.8 C36.8,316.8 28,308 28,296.8 C28,294.4 29.6,292.8 32,292.8 C34.4,292.8 36,294.4 36,296.8 C36,303.6 41.2,308.8 48,308.8 C54.8,308.8 60,303.6 60,296.8 C60,290 54.8,284.8 48,284.8 C45.6,284.8 44,285.2 42.8,286 C40.8,287.2 38.4,286.4 37.2,284.8 C36,282.8 36.8,280.4 38.4,279.2 C40.8,277.6 44,277.2 47.6,277.2 C58.8,277.2 67.6,286 67.6,297.2 C67.6,308.4 59.2,316.8 48,316.8 L48,316.8 Z" id="Shape" fill="#000000"></path>
            <path d="M48,304 L4,304 C1.6,304 0,302.4 0,300 C0,297.6 1.6,296 4,296 L48,296 C50.4,296 52,297.6 52,300 C52,302.4 50.4,304 48,304 L48,304 Z" id="Shape" fill="#000000"></path>
            <path d="M48,369.2 C36.8,369.2 28,360.4 28,349.2 C28,346.8 29.6,345.2 32,345.2 C34.4,345.2 36,346.8 36,349.2 C36,356 41.2,361.2 48,361.2 C54.8,361.2 60,356 60,349.2 C60,342.4 54.8,337.2 48,337.2 C45.6,337.2 44,337.6 42.8,338.4 C40.8,339.6 38.4,338.8 37.2,337.2 C36,335.2 36.8,332.8 38.4,331.6 C40.8,330 44,329.6 47.6,329.6 C58.8,329.6 67.6,338.4 67.6,349.6 C67.6,360.8 59.2,369.2 48,369.2 L48,369.2 Z" id="Shape" fill="#000000"></path>
            <path d="M48,356 L4,356 C1.6,356 0,354.4 0,352 C0,349.6 1.6,348 4,348 L48,348 C50.4,348 52,349.6 52,352 C52,354.4 50.4,356 48,356 L48,356 Z" id="Shape" fill="#000000"></path>
            <path d="M48,421.2 C36.8,421.2 28,412.4 28,401.2 C28,398.8 29.6,397.2 32,397.2 C34.4,397.2 36,398.8 36,401.2 C36,408 41.2,413.2 48,413.2 C54.8,413.2 60,408 60,401.2 C60,394.4 54.8,389.2 48,389.2 C45.6,389.2 44,389.6 42.8,390.4 C40.8,391.6 38.4,390.8 37.2,389.2 C36,387.2 36.8,384.8 38.4,383.6 C40.8,382 44,381.6 47.6,381.6 C58.8,381.6 67.6,390.4 67.6,401.6 C67.6,412.8 59.2,421.2 48,421.2 L48,421.2 Z" id="Shape" fill="#000000"></path>
            <path d="M48,408 L4,408 C1.6,408 0,406.4 0,404 C0,401.6 1.6,400 4,400 L48,400 C50.4,400 52,401.6 52,404 C52,406.4 50.4,408 48,408 L48,408 Z" id="Shape" fill="#000000"></path>
            <path d="M48,472.8 C36.8,472.8 28,464 28,452.8 C28,450.4 29.6,448.8 32,448.8 C34.4,448.8 36,450.4 36,452.8 C36,459.6 41.2,464.8 48,464.8 C54.8,464.8 60,459.6 60,452.8 C60,446 54.8,440.8 48,440.8 C45.6,440.8 44,441.2 42.8,442 C40.8,443.2 38.4,442.4 37.2,440.8 C36,438.8 36.8,436.4 38.4,435.2 C40.8,433.6 44,433.2 47.6,433.2 C58.8,433.2 67.6,442 67.6,453.2 C67.6,464.4 59.2,472.8 48,472.8 L48,472.8 Z" id="Shape" fill="#000000"></path>
            <path d="M48,460 L4,460 C1.6,460 0,458.4 0,456 C0,453.6 1.6,452 4,452 L48,452 C50.4,452 52,453.6 52,456 C52,458.4 50.4,460 48,460 L48,460 Z" id="Shape" fill="#000000"></path>
            <g id="Group" transform="translate(224.000000, 252.000000) rotate(-90.000000) translate(-224.000000, -252.000000) translate(82.000000, 159.000000)">
                <path d="M58.3720965,22.2420908 C64.5579181,26.7273297 68.6227653,31.4225798 70.9350101,34.6657525 C56.2327032,37.509904 44.400867,43.2522098 37.9387661,46.9094046 C35.8362101,22.9321276 21.9018179,15.5937367 13.3074078,11.0694957 C11.6865695,10.2159503 10.2867546,9.47791097 9.2850652,8.7893743 C8.47606286,8.23134458 7.98442747,7.78432077 7.69114641,7.46330367 C27.8878684,7.72131741 45.382721,12.8170888 58.3720965,22.2420908 L58.3720965,22.2420908 Z M5.28964211,14.9817041 C6.63986843,15.9132537 8.21395177,16.7412978 10.0373949,17.701349 C18.8854151,22.359097 31.0048651,28.7404369 31.0048651,53.2892444 L31.0048651,60.3096183 L36.6282106,56.3704085 C36.7982286,56.2504021 54.0224692,44.3352675 77.157669,41.171599 L80.512691,40.6810729 L80.2902507,37.2038877 C80.1471523,34.9522678 75.0451953,25.6802739 63.8509266,17.1448193 C53.5960074,9.32790298 35.2482312,0.0109067421 6.07030811,0.0109067421 L5.2202181,0.0109067421 L4.45938753,0.402427595 C2.56935406,1.38047969 0.296780077,3.61409865 0.111177089,6.69526276 C-0.0701754476,9.70292295 1.67250909,12.4915715 5.28964211,14.9817041 L5.28964211,14.9817041 Z" id="Fill-15" fill-opacity="0.909999967" fill="#3B1E13"></path>
                <path d="M58.3720965,163.734127 C45.382721,173.157629 27.8878684,178.2534 7.69114641,178.511414 C7.98584429,178.191897 8.47606286,177.744873 9.28648201,177.185343 C10.2867546,176.496807 11.6865695,175.760267 13.3074078,174.906722 C21.9018179,170.382481 35.8362101,163.04409 37.9387661,139.065313 C44.400867,142.724008 56.2327032,148.464814 70.9350101,151.310465 C68.6227653,154.553638 64.5579181,159.247388 58.3720965,163.734127 L58.3720965,163.734127 Z M36.6282106,129.604309 L31.0048651,125.665099 L31.0048651,132.685473 C31.0048651,157.235781 18.8854151,163.615621 10.0373949,168.274869 C8.21395177,169.23492 6.63986843,170.062964 5.29105893,170.993014 C1.67250909,173.484646 -0.0701754476,176.273295 0.111177089,179.280955 C0.296780077,182.362119 2.56935406,184.595738 4.45938753,185.57229 L5.2202181,185.965311 L6.07030811,185.965311 C35.2482312,185.965311 53.5960074,176.646815 63.8509266,168.828398 C75.0451953,160.295944 80.1471523,151.02395 80.2902507,148.77233 L80.5013564,145.260643 L77.157669,144.803119 C54.1060614,141.651451 36.7968118,129.722815 36.6282106,129.604309 L36.6282106,129.604309 Z" id="Fill-16" fill-opacity="0.909999967" fill="#3B1E13"></path>
                <path d="M158.320013,61.6281886 C174.74942,61.6281886 188.07033,75.3899215 188.07033,92.3693259 C188.07033,109.34873 174.74942,123.110463 158.320013,123.110463 C141.886357,123.110463 128.565446,109.34873 128.565446,92.3693259 C128.565446,75.3899215 141.886357,61.6281886 158.320013,61.6281886 L158.320013,61.6281886 Z M121.36235,92.3693259 C121.36235,113.424447 137.940522,130.55236 158.320013,130.55236 C178.696671,130.55236 195.273427,113.424447 195.273427,92.3693259 C195.273427,71.3157045 178.696671,54.1862922 158.320013,54.1862922 C137.940522,54.1862922 121.36235,71.3157045 121.36235,92.3693259 L121.36235,92.3693259 Z" id="Fill-17" fill-opacity="0.909999967" fill="#3B1E13"></path>
                <path d="M199.767569,92.3693259 L199.767569,132.682473 C181.433961,137.970255 162.843909,140.647897 144.430959,140.647897 C122.37254,140.647897 100.630071,138.273271 81.5540512,133.783532 C65.1161439,129.913326 50.9040556,124.55654 40.1518337,118.199202 L40.1518337,97.760613 L68.9599676,100.094737 C74.5138891,100.094737 75.388065,95.280981 75.627507,94.2999287 C75.6728451,94.1469206 75.6997646,93.986412 75.6997646,93.816903 L75.6997646,90.7462394 C75.6997646,90.5782305 75.6728451,90.4162219 75.627507,90.2632137 C75.558083,89.9811987 75.4390704,89.667682 75.2648019,89.3571655 C74.7136602,87.6125725 73.238754,84.6409143 68.8806259,84.6409143 L40.1518337,86.9690383 L40.1518337,66.5394502 C50.9040556,60.1821116 65.1161439,54.8268263 81.5526344,50.9566202 C100.631488,46.465381 122.373957,44.0922546 144.430959,44.0922546 C162.855244,44.0922546 181.443879,46.7698972 199.767569,52.0576788 L199.767569,92.3693259 L199.767569,92.3693259 Z M32.9487377,62.3362263 L32.9487377,87.5525693 L28.223654,87.9365898 L28.223654,62.7637491 C28.223654,61.9882077 27.6158396,61.3596743 26.8635099,61.3596743 L20.5190048,61.3596743 C19.7695087,61.3596743 19.1602776,61.9882077 19.1602776,62.7637491 L19.1602776,88.6716289 L14.0257339,89.0871511 L11.25019,89.1456542 L9.18022076,89.1456542 C8.5299019,89.1456542 7.97450975,89.5566761 7.74498545,90.1462075 C7.6217224,90.3772198 7.55229838,90.6397338 7.55229838,90.9187486 L7.55229838,93.9939124 C7.55229838,94.8759594 8.24512174,95.5944977 9.09946221,95.5944977 L11.1694314,95.5944977 L14.1603314,95.6530008 L19.1602776,96.0580224 L19.1602776,121.944901 C19.1602776,122.721943 19.7695087,123.351976 20.5190048,123.351976 L26.8635099,123.351976 C27.6158396,123.351976 28.223654,122.721943 28.223654,121.944901 L28.223654,96.7930615 L32.9487377,97.1755819 L32.9487377,122.399425 C56.4707284,137.853248 97.6122517,148.091294 144.430959,148.091294 C167.050438,148.091294 188.345193,144.140083 206.969248,138.26127 L206.969248,46.4803818 C188.345193,40.5955683 167.050438,36.6488581 144.430959,36.6488581 C97.6122517,36.6488581 56.4707284,46.8884035 32.9487377,62.3362263 L32.9487377,62.3362263 Z" id="Fill-18" fill-opacity="0.909999967" fill="#3B1E13"></path>
                <ellipse id="Oval" stroke="#979797" fill="#F8CBB9" cx="158.202202" cy="92.3708487" rx="18.4807636" ry="18.4741697"></ellipse>
                <path d="M158.320013,75.0269022 C167.573243,75.0269022 175.102207,82.8063166 175.102207,92.3693259 C175.102207,101.932335 167.573243,109.710249 158.320013,109.710249 C149.06395,109.710249 141.534986,101.932335 141.534986,92.3693259 C141.534986,82.8063166 149.06395,75.0269022 158.320013,75.0269022 L158.320013,75.0269022 Z M158.320013,117.153646 C171.544581,117.153646 182.305303,106.036554 182.305303,92.3693259 C182.305303,78.702098 171.544581,67.5835058 158.320013,67.5835058 C145.091196,67.5835058 134.330473,78.702098 134.330473,92.3693259 C134.330473,106.036554 145.091196,117.153646 158.320013,117.153646 L158.320013,117.153646 Z" id="Fill-19" fill-opacity="0.909999967" fill="#3B1E13"></path>
                <polygon id="Path-2" fill-opacity="0.819999993" fill="#FF8453" points="218.419777 55.8754347 218.098424 132.289261 266.469915 109.22557 280.50263 92.2356929 271.608309 81.7559948 229.687093 55.435357"></polygon>
                <path d="M259.115187,108.97071 C248.50323,116.178594 235.331085,122.774445 221.3046,127.954221 L221.3046,56.7859307 C235.331085,61.9657065 248.50323,68.5615579 259.115187,75.7694418 C271.832534,84.409902 275.979556,90.5017264 276.629875,92.3693259 C275.979556,94.2384254 271.832534,100.33025 259.115187,108.97071 L259.115187,108.97071 Z M214.101504,46.4803818 L214.101504,138.26127 C255.642569,125.138571 283.889644,102.39286 283.889644,92.3693259 C283.889644,82.3472921 255.642569,59.6000806 214.101504,46.4803818 L214.101504,46.4803818 Z" id="Fill-20" fill-opacity="0.909999967" fill="#3B1E13"></path>
            </g>
        </g>
    </g>
</svg>