<?xml version="1.0" encoding="UTF-8" standalone="no"?>
<svg width="2451px" height="1795px" viewBox="0 0 2451 1795" version="1.1" xmlns="http://www.w3.org/2000/svg" xmlns:xlink="http://www.w3.org/1999/xlink">
    <!-- Generator: Sketch 39 (31667) - http://www.bohemiancoding.com/sketch -->
    <title>Group 2</title>
    <desc>Created with Sketch.</desc>
    <defs></defs>
    <g id="Page-1" stroke="none" stroke-width="1" fill="none" fill-rule="evenodd">
        <g id="Group-2" transform="translate(0.000000, -356.000000)">
            <g id="startup" transform="translate(737.000000, 356.000000)">
                <g id="Layer_1">
                    <path d="M970.900481,15.4956039 C739.877783,15.4956039 529.568072,103.887812 372.229599,248.416422 C275.454844,247.30837 178.208006,283.521853 104.521334,357.208525 C75.7413376,385.988521 53.1302307,417.772243 34.9464392,452.400698 C96.1412329,421.091506 164.45153,407.966106 231.65622,413.026944 C209.676189,446.390801 189.909816,481.180694 172.516092,517.391731 L468.845362,813.721001 C505.215391,796.327277 540.002838,776.401912 573.366696,754.424327 C578.743071,821.944556 565.935655,890.729382 535.257539,952.873236 C570.044986,936.26958 601.828708,912.075891 630.449712,883.298341 C704.926452,808.821601 741.296481,710.307719 739.241815,612.427358 C882.982803,455.40687 970.900481,245.73068 970.900481,15.4956039 L970.900481,15.4956039 Z" id="Shape" fill="#FFFFFF"></path>
                    <path d="M704.772352,56.2929483 L930.103137,281.623733 C955.876961,197.025319 970.900481,107.684051 970.900481,15.4956039 C878.555488,15.4956039 789.370766,30.6756698 704.772352,56.2929483 L704.772352,56.2929483 Z" id="Shape" fill="#F16051"></path>
                    <circle id="Oval" fill="#2EA2DB" cx="674.571212" cy="311.986311" r="92.1884474"></circle>
                    <path d="M213.313437,559.928203 C152.749719,653.696787 99.9350263,886.461059 99.9350263,886.461059 C99.9350263,886.461059 332.855844,833.487374 426.467882,773.082648 L213.313437,559.928203 L213.313437,559.928203 Z" id="Shape" fill="#FDBF5E"></path>
                    <g id="Group" fill="#193651">
                        <path d="M985.924001,0.474529937 L970.743935,0.474529937 C745.41315,0.474529937 530.676123,86.6530801 367.489192,233.395348 L365.909056,233.395348 C263.12685,233.395348 164.77196,274.192693 92.1908934,346.773759 C63.4108974,375.553755 39.2172087,408.75862 21.1924091,445.128649 L0,485.925994 L40.7973444,464.73603 C90.7648576,438.962206 146.742268,425.362276 202.719678,425.362276 L205.723404,425.362276 C189.119748,452.55969 172.516092,481.339686 158.918608,509.96069 L154.332301,518.974313 L195.129645,559.771657 C134.72492,662.553863 87.761132,874.287164 84.7574064,883.300787 L80.171099,905.911894 L102.782206,901.325587 C111.795829,899.745451 323.526684,851.358074 423.305164,790.953348 L464.102509,831.750692 L473.116131,827.164385 C501.896127,813.564455 530.517131,796.963245 557.714546,780.359589 C557.714546,836.337 545.697197,892.31441 518.340791,945.129103 L497.150828,985.926447 L537.948172,964.736484 C574.318201,946.552693 607.523067,922.359004 636.303063,893.738 C708.884129,821.156934 749.681474,722.802043 749.681474,620.019837 L749.681474,618.439701 C896.423741,455.093778 982.602292,240.356751 982.602292,15.184958 L982.602292,0 L985.924001,0 L985.924001,0.474529937 L985.924001,0.474529937 Z M202.719678,396.58228 C157.336026,396.58228 113.534956,404.172313 71.1574763,419.193387 C83.3338166,401.009595 98.3548905,382.823358 113.534956,367.802284 C174.098674,307.238566 251.10461,272.610111 334.279434,265.020078 C293.48209,305.817422 257.114507,349.777484 223.907195,398.00587 L223.907195,398.00587 C217.899744,396.58228 210.309711,396.58228 202.719678,396.58228 L202.719678,396.58228 Z M121.124989,865.273542 C134.72492,807.872542 174.098674,662.712855 217.899744,583.965346 L402.276639,770.081369 C323.685676,813.879993 176.943408,851.673612 121.124989,865.273542 L121.124989,865.273542 Z M618.593801,872.863575 C601.990146,889.46723 585.38649,903.064715 567.202698,915.241055 C585.38649,865.273542 592.976523,812.458849 589.813805,761.067746 C638.201183,727.860434 682.002253,691.492851 722.799597,650.695507 C715.368556,735.291475 678.998527,812.458849 618.593801,872.863575 L618.593801,872.863575 Z M471.851533,795.855193 L190.70233,514.546998 C334.28188,224.225179 632.193732,36.685567 955.879407,30.6756698 C949.712964,354.2048 762.173352,652.116651 471.851533,795.855193 L471.851533,795.855193 Z" id="Shape"></path>
                        <rect id="Rectangle-path" transform="translate(349.752025, 540.467135) rotate(45.000000) translate(-349.752025, -540.467135) " x="334.6516" y="525.36671" width="30.2008502" height="30.2008502"></rect>
                        <rect id="Rectangle-path" transform="translate(397.904982, 588.944998) rotate(45.000000) translate(-397.904982, -588.944998) " x="382.804557" y="573.844573" width="30.2008502" height="30.2008502"></rect>
                        <rect id="Rectangle-path" transform="translate(446.057938, 637.419646) rotate(45.000000) translate(-446.057938, -637.419646) " x="430.957513" y="622.319221" width="30.2008502" height="30.2008502"></rect>
                    </g>
                </g>
            </g>
            <path d="M245,1791.7 L173.6,1791.7 L173.6,1775.6 C173.6,1759.26658 169.750038,1745.15006 162.05,1733.25 C154.349962,1721.34994 141.400091,1715.4 123.2,1715.4 C113.399951,1715.4 105.350032,1717.26665 99.05,1721 C92.7499685,1724.73335 87.8500175,1729.51664 84.35,1735.35 C80.8499825,1741.18336 78.400007,1747.94996 77,1755.65 C75.599993,1763.35004 74.9,1771.39996 74.9,1779.8 C74.9,1789.60005 75.2499965,1797.8833 75.95,1804.65 C76.6500035,1811.4167 78.399986,1817.24998 81.2,1822.15 C84.000014,1827.05002 88.0833065,1831.36665 93.45,1835.1 C98.8166935,1838.83335 106.16662,1842.56665 115.5,1846.3 L170.1,1868 C185.966746,1874.0667 198.799951,1881.18329 208.6,1889.35 C218.400049,1897.51671 225.983307,1907.08328 231.35,1918.05 C236.716694,1929.01672 240.333324,1941.6166 242.2,1955.85 C244.066676,1970.0834 245,1986.29991 245,2004.5 C245,2025.5001 242.900021,2044.98324 238.7,2062.95 C234.499979,2080.91676 227.616715,2096.3166 218.05,2109.15 C208.483285,2121.9834 195.766746,2132.1333 179.9,2139.6 C164.033254,2147.0667 144.666781,2150.8 121.8,2150.8 C104.533247,2150.8 88.433408,2147.7667 73.5,2141.7 C58.566592,2135.6333 45.733387,2127.35005 35,2116.85 C24.266613,2106.34995 15.7500315,2093.86674 9.45,2079.4 C3.1499685,2064.93326 0,2049.30008 0,2032.5 L0,2005.9 L71.4,2005.9 L71.4,2028.3 C71.4,2041.36673 75.2499615,2053.14995 82.95,2063.65 C90.6500385,2074.15005 103.599909,2079.4 121.8,2079.4 C133.933394,2079.4 143.3833,2077.65002 150.15,2074.15 C156.916701,2070.64998 162.049982,2065.75003 165.55,2059.45 C169.050017,2053.14997 171.266662,2045.33338 172.2,2036 C173.133338,2026.66662 173.6,2016.40006 173.6,2005.2 C173.6,1992.13327 173.133338,1981.40004 172.2,1973 C171.266662,1964.59996 169.283349,1957.83336 166.25,1952.7 C163.216652,1947.56664 159.016694,1943.36668 153.65,1940.1 C148.283307,1936.83332 141.166711,1933.33335 132.3,1929.6 L81.2,1908.6 C50.399846,1895.99994 29.7500525,1879.31677 19.25,1858.55 C8.7499475,1837.78323 3.5,1811.76682 3.5,1780.5 C3.5,1761.83324 6.066641,1744.10008 11.2,1727.3 C16.333359,1710.49992 23.9166165,1696.03339 33.95,1683.9 C43.9833835,1671.76661 56.699923,1662.08337 72.1,1654.85 C87.500077,1647.61663 105.466564,1644 126,1644 C143.733422,1644 159.949927,1647.26663 174.65,1653.8 C189.350074,1660.33337 201.949948,1668.96661 212.45,1679.7 C222.950052,1690.43339 230.999972,1702.44993 236.6,1715.75 C242.200028,1729.05007 245,1742.69993 245,1756.7 L245,1791.7 Z M443.4,1791.7 L442,1791.7 L407,1972.3 L478.4,1972.3 L443.4,1791.7 Z M413.3,1648.2 L472.8,1648.2 L584.1,2146.6 L512.7,2146.6 L491.7,2039.5 L394.4,2039.5 L373.4,2146.6 L302,2146.6 L413.3,1648.2 Z M663.5,1715.4 L580.9,1715.4 L580.9,1648.2 L817.5,1648.2 L817.5,1715.4 L734.9,1715.4 L734.9,2146.6 L663.5,2146.6 L663.5,1715.4 Z M1116,2034.6 C1116,2050.93341 1112.9667,2066.09993 1106.9,2080.1 C1100.8333,2094.10007 1092.55005,2106.34995 1082.05,2116.85 C1071.54995,2127.35005 1059.30007,2135.6333 1045.3,2141.7 C1031.29993,2147.7667 1016.36675,2150.8 1000.5,2150.8 C984.633254,2150.8 969.70007,2147.7667 955.7,2141.7 C941.69993,2135.6333 929.450053,2127.35005 918.95,2116.85 C908.449948,2106.34995 900.166697,2094.10007 894.1,2080.1 C888.033303,2066.09993 885,2050.93341 885,2034.6 L885,1648.2 L956.4,1648.2 L956.4,2027.6 C956.4,2045.33342 960.599958,2058.39996 969,2066.8 C977.400042,2075.20004 987.899937,2079.4 1000.5,2079.4 C1013.10006,2079.4 1023.59996,2075.20004 1032,2066.8 C1040.40004,2058.39996 1044.6,2045.33342 1044.6,2027.6 L1044.6,1648.2 L1116,1648.2 L1116,2034.6 Z M1290.6,1870.8 L1331.2,1870.8 C1343.80006,1870.8 1353.8333,1869.05002 1361.3,1865.55 C1368.7667,1862.04998 1374.48331,1857.03337 1378.45,1850.5 C1382.41669,1843.96663 1385.09999,1835.91671 1386.5,1826.35 C1387.90001,1816.78329 1388.6,1805.70006 1388.6,1793.1 C1388.6,1780.49994 1387.90001,1769.41671 1386.5,1759.85 C1385.09999,1750.28329 1382.18336,1742.1167 1377.75,1735.35 C1373.31664,1728.5833 1367.13337,1723.56668 1359.2,1720.3 C1351.26663,1717.03332 1340.76673,1715.4 1327.7,1715.4 L1290.6,1715.4 L1290.6,1870.8 Z M1219.2,1648.2 L1334,1648.2 C1418.00042,1648.2 1460,1696.96618 1460,1794.5 C1460,1823.43348 1455.45005,1848.28323 1446.35,1869.05 C1437.24995,1889.81677 1421.26678,1906.49994 1398.4,1919.1 L1475.4,2146.6 L1399.8,2146.6 L1333.3,1933.8 L1290.6,1933.8 L1290.6,2146.6 L1219.2,2146.6 L1219.2,1648.2 Z M1550.6,1648.2 L1619.2,1648.2 L1727,1948.5 L1728.4,1948.5 L1728.4,1648.2 L1799.8,1648.2 L1799.8,2146.6 L1732.6,2146.6 L1623.4,1847 L1622,1847 L1622,2146.6 L1550.6,2146.6 L1550.6,1648.2 Z M1897.4,1917 L2108.1,1917 L2108.1,1988.4 L1897.4,1988.4 L1897.4,1917 Z M2348.5,2146.6 L2285.5,2146.6 L2184,1648.2 L2259.6,1648.2 L2316.3,1996.1 L2317.7,1996.1 L2375.1,1648.2 L2450.7,1648.2 L2348.5,2146.6 Z" id="SATURN-V" fill="#23BEFF"></path>
        </g>
    </g>
</svg>