<?xml version="1.0" encoding="UTF-8" standalone="no"?>
<svg width="220px" height="35px" viewBox="0 0 220 35" version="1.1" xmlns="http://www.w3.org/2000/svg" xmlns:xlink="http://www.w3.org/1999/xlink">
    <!-- Generator: Sketch 39 (31667) - http://www.bohemiancoding.com/sketch -->
    <title>SYNCHRO</title>
    <desc>Created with Sketch.</desc>
    <defs></defs>
    <g id="Page-1" stroke="none" stroke-width="1" fill="none" fill-rule="evenodd">
        <path d="M0,33.3805995 L1.75953953,27.5613414 C5.1636682,29.3309873 8.11923389,29.7914196 10.5806296,29.7914196 C12.4763629,29.7914196 13.4253206,29.5835039 14.8137537,28.5918919 C16.2021869,27.60028 17.1576628,26.9509038 17.53955,25.3338136 C17.8529858,24.0065791 17.5614855,23.3660683 17.0244863,22.4354786 C16.4874871,21.5048889 15.3905353,21.0891725 13.6274117,19.9450049 L10.5806299,18.5788246 C8.0802581,16.9312232 7.18123381,16.4332949 6.34045926,14.9763881 C5.49968472,13.5194813 5.22650766,10.3599532 5.68405181,8.42249602 C6.30011519,5.81379382 7.34883882,5.119286 9.64267161,3.43354566 C11.9365044,1.74780535 15.7418126,1.04661372 18.6771417,1.04661372 C21.2914191,1.04661372 25.350505,1.35652634 28.0499033,2.22609374 L26.4109007,7.75731685 C23.1649178,6.35380454 21.4682049,6.09171968 19.7100651,6.09171968 C18.0436544,6.09171968 16.8887196,6.16549102 15.1857161,6.72066269 C13.4827126,7.2758344 13.0081512,8.33577321 12.6911128,9.67826323 C12.4245122,10.8071753 12.9886001,11.8885356 14.8137537,13.0937256 L18.4228578,15.2434178 C20.9654915,16.9062748 23.2387089,18.4652142 24.0511471,19.9450043 C24.8635853,21.4247944 25.3888594,24.2957128 24.8988909,26.3704701 C24.2035679,29.3147949 22.7391159,31.1329812 20.1390343,32.9178827 C17.5389527,34.7027844 12.6484713,35 9.05575084,35 C6.77781321,35 3.31267979,34.3722113 0,33.3805995 L0,33.3805995 Z M38.468149,20.2000238 L29.9870586,1.26975287 L37.5919152,1.26975287 L42.8316836,14.8301787 L54.6984367,1.26975287 L63.3727422,1.26975287 L45.9640309,20.6182275 L42.8316836,34.4717126 L35.4736147,34.4717126 L38.468149,20.2000238 L38.468149,20.2000238 Z M65.8070347,1.2335166 L75.0852945,1.2335166 L82.7905173,25.9565024 L88.7003897,1.2335166 L95.8019502,1.2335166 L88.1688498,34.4857004 L78.5686501,34.4857004 L70.7421114,8.48327817 L65.2553206,34.4857004 L57.8940423,34.4857004 L65.8070347,1.2335166 L65.8070347,1.2335166 Z M97.5518043,28.9805406 C94.3165444,23.5678204 94.1709672,21.638006 94.7652044,15.9166241 C95.3594415,10.1952422 97.6182242,7.98623254 101.280862,4.87409658 C104.9435,1.76196059 110.328915,0.510274521 115.649199,0.510274521 C118.691545,0.510274521 122.192891,0.929122419 126.040657,1.92073437 L124.778172,7.77342208 C120.508852,6.17158738 118.170097,5.53584293 115.649199,5.63569408 C108.597968,5.91498891 105.778386,9.27224723 104.723869,10.6204057 C103.669352,11.9685642 102.734685,12.7259249 102.166831,16.7343767 C101.598978,20.7428284 102.698371,22.7218381 103.890353,25.2011629 C105.082334,27.6804876 109.091938,29.3683322 112.822252,29.3683322 C116.032768,29.3683322 116.208427,29.0945604 120.342338,27.1265921 L119.146571,33.6719727 C110.063684,35.5746949 100.787064,34.3932609 97.5518043,28.9805406 L97.5518043,28.9805406 Z M128.891979,0.709044234 L136.404293,0.709044234 L133.27033,13.8050058 L148.037479,13.8050058 L151.184978,0.378695262 L158.203331,0.378695262 L151.184978,33.7415331 L143.567793,33.7415331 L146.914671,19.4889686 L132.173852,19.4889686 L128.891979,33.7415331 L121.539322,33.7415331 L128.891979,0.709044234 L128.891979,0.709044234 Z M160.936863,0.801648067 L173.315804,0.801648067 C176.572184,0.801648067 179.839531,1.1612561 181.877133,3.11420034 C183.914736,5.06714453 184.749657,7.92305629 183.914736,10.5884082 C181.877133,17.0931337 176.426702,16.365108 173.586558,16.7769318 C173.586558,16.7769318 175.334665,16.7769318 176.759984,18.3028038 C178.185303,19.8286758 181.093735,33.6459079 181.093735,33.6459079 L173.586558,33.6459079 C173.586558,33.6459079 171.552502,23.3574426 170.202805,21.3696525 C169.573821,20.4433041 169.300909,20.0596373 168.380749,20.0596373 L164.210618,20.0596373 L161.169696,33.3846181 L153.71209,33.3846181 L160.936863,0.801648067 L160.936863,0.801648067 Z M168.651695,14.4729817 C174.705811,14.4729817 176.218116,12.1585712 176.59763,10.3010608 C177.498488,5.89185516 172.747951,5.92897456 169.955193,5.92897456 L167.243132,5.92897456 L165.548047,14.472982 L168.651695,14.4729817 L168.651695,14.4729817 Z M186.707495,28.4018204 C184.610142,25.1447566 183.765718,20.9178659 185.030269,15.5631613 C186.302025,10.1779457 189.201383,6.42677001 192.872757,3.58018609 C196.544132,0.733602186 200.283025,0 205.098799,0 C209.899285,0 215.388584,1.89844177 217.517876,5.11736673 C219.647169,8.33629169 220.725099,13.114565 219.456945,18.4845251 C218.163572,23.9612742 216.109823,26.5225764 212.461988,29.7338735 C208.814153,32.9451708 203.372144,33.9915294 198.434064,33.9915294 C193.725307,33.9915294 188.804849,31.6588843 186.707495,28.4018204 L186.707495,28.4018204 Z M206.860545,26.025059 C209.345322,23.5307735 210.838792,21.7700134 211.912399,17.2238539 C212.953582,12.8149947 212.314967,9.31337923 210.255134,7.22691116 C208.195301,5.14044309 205.312221,5.06502558 203.866469,5.06502558 C202.420717,5.06502558 198.889308,6.05472 196.404531,8.54900544 C193.919755,11.0432909 192.619198,14.2691224 192.067484,17.7229276 C191.515771,21.1767328 191.942423,23.771635 192.335272,24.8154891 C192.728121,25.8593431 195.416597,28.9222665 198.73413,28.9222665 C202.204546,28.9222665 204.375768,28.5193444 206.860545,26.025059 L206.860545,26.025059 Z" id="SYNCHRO" fill="#1976DB"></path>
    </g>
</svg>